<mxfile host="app.diagrams.net" modified="2023-08-23T15:23:30.550Z" agent="Mozilla/5.0 (Windows NT 10.0; Win64; x64) AppleWebKit/537.36 (KHTML, like Gecko) Chrome/115.0.0.0 Safari/537.36 OPR/101.0.0.0" etag="bplA1CEwuiQe0Mlkr4jt" version="21.6.8" type="github">
  <diagram name="Page-1" id="97916047-d0de-89f5-080d-49f4d83e522f">
    <mxGraphModel dx="3716.5" dy="2290.5" grid="0" gridSize="10" guides="1" tooltips="1" connect="1" arrows="1" fold="1" page="1" pageScale="1.5" pageWidth="1169" pageHeight="827" background="none" math="0" shadow="0">
      <root>
        <mxCell id="0" />
        <mxCell id="1" parent="0" />
        <mxCell id="fwKIWZc1ydTvs1OeLj7H-102" value="" style="ellipse;whiteSpace=wrap;html=1;aspect=fixed;fillColor=#e1d5e7;strokeColor=#9673a6;sketch=1;curveFitting=1;jiggle=2;direction=south;" vertex="1" parent="1">
          <mxGeometry x="574" y="835.5" width="375.5" height="375.5" as="geometry" />
        </mxCell>
        <mxCell id="fwKIWZc1ydTvs1OeLj7H-101" value="" style="ellipse;whiteSpace=wrap;html=1;aspect=fixed;fillColor=#e1d5e7;strokeColor=#9673a6;sketch=1;curveFitting=1;jiggle=2;" vertex="1" parent="1">
          <mxGeometry x="88" y="573" width="284" height="284" as="geometry" />
        </mxCell>
        <mxCell id="fwKIWZc1ydTvs1OeLj7H-100" value="" style="ellipse;whiteSpace=wrap;html=1;aspect=fixed;fillColor=#e1d5e7;strokeColor=#9673a6;sketch=1;curveFitting=1;jiggle=2;" vertex="1" parent="1">
          <mxGeometry x="1272" y="527" width="381" height="381" as="geometry" />
        </mxCell>
        <mxCell id="2" value="Conselho Tutelar" style="rounded=1;fillColor=#dae8fc;strokeColor=#6c8ebf;shadow=1;fontStyle=1;fontSize=14;sketch=1;curveFitting=1;jiggle=2;" parent="1" vertex="1">
          <mxGeometry x="672" y="205.5" width="200" height="60" as="geometry" />
        </mxCell>
        <mxCell id="fwKIWZc1ydTvs1OeLj7H-59" style="edgeStyle=orthogonalEdgeStyle;rounded=0;orthogonalLoop=1;jettySize=auto;html=1;sketch=1;curveFitting=1;jiggle=2;strokeWidth=4;fillColor=#ffe6cc;strokeColor=#d79b00;" edge="1" parent="1" target="fwKIWZc1ydTvs1OeLj7H-60">
          <mxGeometry relative="1" as="geometry">
            <mxPoint x="1122" y="30" as="targetPoint" />
            <mxPoint x="882" y="375.5" as="sourcePoint" />
            <Array as="points">
              <mxPoint x="1067" y="376" />
            </Array>
          </mxGeometry>
        </mxCell>
        <mxCell id="fwKIWZc1ydTvs1OeLj7H-143" value="Informativo" style="edgeLabel;html=1;align=center;verticalAlign=middle;resizable=0;points=[];" vertex="1" connectable="0" parent="fwKIWZc1ydTvs1OeLj7H-59">
          <mxGeometry x="0.4583" relative="1" as="geometry">
            <mxPoint x="6" y="88" as="offset" />
          </mxGeometry>
        </mxCell>
        <mxCell id="fwKIWZc1ydTvs1OeLj7H-142" style="edgeStyle=orthogonalEdgeStyle;rounded=0;orthogonalLoop=1;jettySize=auto;html=1;strokeWidth=3;sketch=1;curveFitting=1;jiggle=2;fillColor=#fff2cc;strokeColor=#d6b656;" edge="1" parent="1" source="3" target="fwKIWZc1ydTvs1OeLj7H-81">
          <mxGeometry relative="1" as="geometry">
            <Array as="points">
              <mxPoint x="774" y="683" />
            </Array>
          </mxGeometry>
        </mxCell>
        <mxCell id="3" value="Registro de Denúncias" style="rounded=1;fillColor=#dae8fc;strokeColor=#6c8ebf;shadow=1;fontStyle=1;fontSize=14;glass=0;sketch=1;curveFitting=1;jiggle=2;" parent="1" vertex="1">
          <mxGeometry x="662" y="345.5" width="220" height="60" as="geometry" />
        </mxCell>
        <mxCell id="fwKIWZc1ydTvs1OeLj7H-62" value="" style="rounded=0;orthogonalLoop=1;jettySize=auto;html=1;strokeWidth=4;endArrow=block;endFill=1;strokeColor=#356893;elbow=vertical;edgeStyle=orthogonalEdgeStyle;sketch=1;curveFitting=1;jiggle=2;" edge="1" parent="1" target="fwKIWZc1ydTvs1OeLj7H-61">
          <mxGeometry relative="1" as="geometry">
            <mxPoint x="774" y="409" as="sourcePoint" />
            <Array as="points">
              <mxPoint x="774" y="610" />
            </Array>
          </mxGeometry>
        </mxCell>
        <mxCell id="fwKIWZc1ydTvs1OeLj7H-65" style="edgeStyle=orthogonalEdgeStyle;rounded=0;orthogonalLoop=1;jettySize=auto;html=1;sketch=1;curveFitting=1;jiggle=2;strokeWidth=4;fillColor=#ffe6cc;strokeColor=#d79b00;" edge="1" parent="1" target="fwKIWZc1ydTvs1OeLj7H-64">
          <mxGeometry relative="1" as="geometry">
            <mxPoint x="469" y="449" as="sourcePoint" />
            <mxPoint x="309" y="339" as="targetPoint" />
            <Array as="points">
              <mxPoint x="469" y="422" />
              <mxPoint x="309" y="422" />
            </Array>
          </mxGeometry>
        </mxCell>
        <mxCell id="fwKIWZc1ydTvs1OeLj7H-144" value="Informativo&lt;br&gt;" style="edgeLabel;html=1;align=center;verticalAlign=middle;resizable=0;points=[];" vertex="1" connectable="0" parent="fwKIWZc1ydTvs1OeLj7H-65">
          <mxGeometry x="0.4711" y="2" relative="1" as="geometry">
            <mxPoint x="3" y="99" as="offset" />
          </mxGeometry>
        </mxCell>
        <mxCell id="fwKIWZc1ydTvs1OeLj7H-74" value="" style="edgeStyle=orthogonalEdgeStyle;rounded=0;orthogonalLoop=1;jettySize=auto;html=1;fillColor=#dae8fc;strokeColor=#356893;strokeWidth=3;sketch=1;curveFitting=1;jiggle=2;exitX=0.5;exitY=1;exitDx=0;exitDy=0;" edge="1" parent="1" source="3" target="fwKIWZc1ydTvs1OeLj7H-73">
          <mxGeometry relative="1" as="geometry">
            <Array as="points">
              <mxPoint x="772" y="610" />
            </Array>
          </mxGeometry>
        </mxCell>
        <mxCell id="fwKIWZc1ydTvs1OeLj7H-147" style="rounded=0;orthogonalLoop=1;jettySize=auto;html=1;strokeWidth=2;fillColor=#f8cecc;strokeColor=#b85450;sketch=1;curveFitting=1;jiggle=2;" edge="1" parent="1" source="5" target="fwKIWZc1ydTvs1OeLj7H-66">
          <mxGeometry relative="1" as="geometry" />
        </mxCell>
        <mxCell id="5" value="Averiguações de &#xa;Entrada" style="rounded=1;fillColor=#fad9d5;strokeColor=#ae4132;shadow=1;fontStyle=1;fontSize=14;sketch=1;curveFitting=1;jiggle=2;arcSize=29;" parent="1" vertex="1">
          <mxGeometry x="410" y="455.5" width="200" height="60" as="geometry" />
        </mxCell>
        <mxCell id="29" value="" style="edgeStyle=elbowEdgeStyle;elbow=vertical;strokeWidth=4;endArrow=block;endFill=1;fontStyle=1;strokeColor=#23445D;sketch=1;curveFitting=1;jiggle=2;" parent="1" source="2" target="3" edge="1">
          <mxGeometry x="22" y="165.5" width="100" height="100" as="geometry">
            <mxPoint x="22" y="265.5" as="sourcePoint" />
            <mxPoint x="122" y="165.5" as="targetPoint" />
          </mxGeometry>
        </mxCell>
        <mxCell id="30" value="" style="edgeStyle=elbowEdgeStyle;elbow=vertical;strokeWidth=4;endArrow=block;endFill=1;fontStyle=1;strokeColor=#ae4132;sketch=1;curveFitting=1;jiggle=2;fillColor=#fad9d5;" parent="1" source="3" target="5" edge="1">
          <mxGeometry x="22" y="165.5" width="100" height="100" as="geometry">
            <mxPoint x="22" y="265.5" as="sourcePoint" />
            <mxPoint x="122" y="165.5" as="targetPoint" />
            <Array as="points" />
          </mxGeometry>
        </mxCell>
        <mxCell id="fwKIWZc1ydTvs1OeLj7H-139" style="edgeStyle=orthogonalEdgeStyle;rounded=0;orthogonalLoop=1;jettySize=auto;html=1;sketch=1;curveFitting=1;jiggle=2;strokeWidth=3;fillColor=#ffe6cc;strokeColor=#d79b00;" edge="1" parent="1" source="2" target="fwKIWZc1ydTvs1OeLj7H-58">
          <mxGeometry relative="1" as="geometry">
            <Array as="points">
              <mxPoint x="713" y="-306" />
            </Array>
          </mxGeometry>
        </mxCell>
        <mxCell id="fwKIWZc1ydTvs1OeLj7H-146" value="Informativo&lt;br&gt;" style="edgeLabel;html=1;align=center;verticalAlign=middle;resizable=0;points=[];" vertex="1" connectable="0" parent="fwKIWZc1ydTvs1OeLj7H-139">
          <mxGeometry x="-0.0684" y="-1" relative="1" as="geometry">
            <mxPoint x="3" y="140" as="offset" />
          </mxGeometry>
        </mxCell>
        <mxCell id="fwKIWZc1ydTvs1OeLj7H-58" value="&lt;font style=&quot;font-size: 14px;&quot;&gt;&lt;b&gt;CRIANÇAS DE 0 A 12 ANOS INCOMPLETOS&lt;br&gt;JOVENS DE 12 A 18 ANOS INCOMPLETOS&lt;/b&gt;&lt;/font&gt;" style="rounded=1;whiteSpace=wrap;html=1;sketch=1;curveFitting=1;jiggle=2;fillColor=#ffe6cc;strokeColor=#d79b00;" vertex="1" parent="1">
          <mxGeometry x="303" y="-376" width="350" height="140" as="geometry" />
        </mxCell>
        <mxCell id="fwKIWZc1ydTvs1OeLj7H-60" value="&lt;div style=&quot;text-align: justify;&quot;&gt;&lt;ul&gt;&lt;li&gt;&lt;span style=&quot;background-color: initial;&quot;&gt;N° de Registro Incremental com uma fórmula Padronizada a ser definida.&lt;/span&gt;&lt;/li&gt;&lt;li&gt;&lt;span style=&quot;background-color: initial;&quot;&gt;Se trata do Inicio do Processo de uma Denúncia que chega por meio Anônimo ou Declarado&lt;/span&gt;&lt;/li&gt;&lt;li&gt;Poucas informações de confiabilidade (ainda deverão ser averiguadas)&lt;/li&gt;&lt;li&gt;Possibilitará o acesso e início de Averiguações que darão corpo ao Processo&lt;/li&gt;&lt;/ul&gt;&lt;/div&gt;" style="shape=card;whiteSpace=wrap;html=1;fillColor=#ffe6cc;strokeColor=#d79b00;sketch=1;curveFitting=1;jiggle=2;" vertex="1" parent="1">
          <mxGeometry x="787" y="-279.5" width="640" height="280" as="geometry" />
        </mxCell>
        <mxCell id="fwKIWZc1ydTvs1OeLj7H-135" style="edgeStyle=orthogonalEdgeStyle;rounded=0;orthogonalLoop=1;jettySize=auto;html=1;curved=1;strokeWidth=3;fillColor=#e1d5e7;strokeColor=#9673a6;sketch=1;curveFitting=1;jiggle=2;" edge="1" parent="1" source="fwKIWZc1ydTvs1OeLj7H-61" target="fwKIWZc1ydTvs1OeLj7H-101">
          <mxGeometry relative="1" as="geometry">
            <Array as="points">
              <mxPoint x="172" y="635" />
              <mxPoint x="172" y="624" />
            </Array>
          </mxGeometry>
        </mxCell>
        <mxCell id="fwKIWZc1ydTvs1OeLj7H-149" style="rounded=0;orthogonalLoop=1;jettySize=auto;html=1;fillColor=#f8cecc;strokeColor=#b85450;sketch=1;curveFitting=1;jiggle=2;" edge="1" parent="1" source="fwKIWZc1ydTvs1OeLj7H-61" target="fwKIWZc1ydTvs1OeLj7H-66">
          <mxGeometry relative="1" as="geometry" />
        </mxCell>
        <mxCell id="fwKIWZc1ydTvs1OeLj7H-61" value="Averiguação&amp;nbsp;&lt;br&gt;&amp;nbsp;Evolutiva&lt;br&gt;" style="rounded=1;whiteSpace=wrap;html=1;fontSize=14;fillColor=#dae8fc;strokeColor=#6c8ebf;shadow=1;fontStyle=1;sketch=1;curveFitting=1;jiggle=2;" vertex="1" parent="1">
          <mxGeometry x="413" y="580" width="190" height="60" as="geometry" />
        </mxCell>
        <mxCell id="fwKIWZc1ydTvs1OeLj7H-64" value="&lt;ul style=&quot;border-color: var(--border-color);&quot;&gt;&lt;li style=&quot;border-color: var(--border-color);&quot;&gt;Identificação da Criança/Adolescente com a base Federal/Municipal&lt;/li&gt;&lt;li style=&quot;border-color: var(--border-color);&quot;&gt;Uma para cada Denunciado Identificado&lt;/li&gt;&lt;li style=&quot;border-color: var(--border-color);&quot;&gt;Identificar os Conselheiros integrantes&lt;/li&gt;&lt;li style=&quot;border-color: var(--border-color);&quot;&gt;Datar&lt;/li&gt;&lt;li style=&quot;border-color: var(--border-color);&quot;&gt;Herdar Unidade de Atendimento&lt;/li&gt;&lt;li style=&quot;border-color: var(--border-color);&quot;&gt;Possibilitar um Cadastro de Provisório dentro da Página de Averiguação de Entrada&lt;/li&gt;&lt;li style=&quot;border-color: var(--border-color);&quot;&gt;&lt;br&gt;&lt;/li&gt;&lt;/ul&gt;" style="shape=note;whiteSpace=wrap;html=1;backgroundOutline=1;darkOpacity=0.05;fillColor=#ffe6cc;strokeColor=#d79b00;shadow=1;sketch=1;curveFitting=1;jiggle=2;" vertex="1" parent="1">
          <mxGeometry x="23" y="-159.5" width="520" height="160" as="geometry" />
        </mxCell>
        <mxCell id="fwKIWZc1ydTvs1OeLj7H-68" value="Adições de Direitos Violados&lt;br&gt;" style="ellipse;whiteSpace=wrap;html=1;fontSize=14;fillColor=#dae8fc;strokeColor=#6c8ebf;rounded=1;shadow=1;fontStyle=1;sketch=1;curveFitting=1;jiggle=2;" vertex="1" parent="1">
          <mxGeometry x="181" y="720" width="110" height="120" as="geometry" />
        </mxCell>
        <mxCell id="fwKIWZc1ydTvs1OeLj7H-70" value="Agentes Violadores&lt;br&gt;" style="ellipse;whiteSpace=wrap;html=1;fontSize=14;fillColor=#dae8fc;strokeColor=#6c8ebf;rounded=1;shadow=1;fontStyle=1;sketch=1;curveFitting=1;jiggle=2;" vertex="1" parent="1">
          <mxGeometry x="161" y="607" width="110" height="94.5" as="geometry" />
        </mxCell>
        <mxCell id="fwKIWZc1ydTvs1OeLj7H-137" style="edgeStyle=orthogonalEdgeStyle;rounded=0;orthogonalLoop=1;jettySize=auto;html=1;curved=1;strokeWidth=3;fillColor=#e1d5e7;strokeColor=#9673a6;sketch=1;curveFitting=1;jiggle=2;" edge="1" parent="1" source="fwKIWZc1ydTvs1OeLj7H-73" target="fwKIWZc1ydTvs1OeLj7H-100">
          <mxGeometry relative="1" as="geometry" />
        </mxCell>
        <mxCell id="fwKIWZc1ydTvs1OeLj7H-148" style="rounded=0;orthogonalLoop=1;jettySize=auto;html=1;sketch=1;curveFitting=1;jiggle=2;fillColor=#f8cecc;strokeColor=#b85450;" edge="1" parent="1" source="fwKIWZc1ydTvs1OeLj7H-73" target="fwKIWZc1ydTvs1OeLj7H-66">
          <mxGeometry relative="1" as="geometry" />
        </mxCell>
        <mxCell id="fwKIWZc1ydTvs1OeLj7H-73" value="Averiguação Evolutiva Ostensiva" style="whiteSpace=wrap;html=1;fontSize=14;fillColor=#dae8fc;strokeColor=#6c8ebf;rounded=1;shadow=1;fontStyle=1;sketch=1;curveFitting=1;jiggle=2;" vertex="1" parent="1">
          <mxGeometry x="947" y="580" width="190" height="60" as="geometry" />
        </mxCell>
        <mxCell id="fwKIWZc1ydTvs1OeLj7H-75" value="Medidas&amp;nbsp;&lt;br&gt;C/A" style="ellipse;whiteSpace=wrap;html=1;fontSize=14;fillColor=#dae8fc;strokeColor=#6c8ebf;rounded=1;shadow=1;fontStyle=1;sketch=1;curveFitting=1;jiggle=2;" vertex="1" parent="1">
          <mxGeometry x="1327" y="635" width="110" height="94.5" as="geometry" />
        </mxCell>
        <mxCell id="fwKIWZc1ydTvs1OeLj7H-76" value="Medidas&lt;br&gt;P/R" style="ellipse;whiteSpace=wrap;html=1;fontSize=14;fillColor=#dae8fc;strokeColor=#6c8ebf;rounded=1;shadow=1;fontStyle=1;sketch=1;curveFitting=1;jiggle=2;" vertex="1" parent="1">
          <mxGeometry x="1359" y="790" width="110" height="94.5" as="geometry" />
        </mxCell>
        <mxCell id="fwKIWZc1ydTvs1OeLj7H-79" value="Documentação&lt;br&gt;Processos&lt;br&gt;e&lt;br&gt;Procedimentos" style="ellipse;whiteSpace=wrap;html=1;fontSize=14;fillColor=#dae8fc;strokeColor=#6c8ebf;rounded=1;shadow=1;fontStyle=1;sketch=1;curveFitting=1;jiggle=2;" vertex="1" parent="1">
          <mxGeometry x="1446" y="552" width="135" height="105" as="geometry" />
        </mxCell>
        <mxCell id="fwKIWZc1ydTvs1OeLj7H-140" style="edgeStyle=orthogonalEdgeStyle;rounded=0;orthogonalLoop=1;jettySize=auto;html=1;curved=1;fillColor=#d0cee2;strokeColor=#56517e;strokeWidth=3;sketch=1;curveFitting=1;jiggle=2;" edge="1" parent="1" source="fwKIWZc1ydTvs1OeLj7H-81" target="fwKIWZc1ydTvs1OeLj7H-102">
          <mxGeometry relative="1" as="geometry">
            <Array as="points">
              <mxPoint x="1003" y="738" />
              <mxPoint x="886" y="738" />
            </Array>
          </mxGeometry>
        </mxCell>
        <mxCell id="fwKIWZc1ydTvs1OeLj7H-81" value="Averiguação de&lt;br&gt;Encerramento" style="whiteSpace=wrap;html=1;fontSize=14;fillColor=#fff2cc;strokeColor=#d6b656;rounded=1;shadow=1;fontStyle=1;sketch=1;curveFitting=1;jiggle=2;" vertex="1" parent="1">
          <mxGeometry x="947" y="727" width="166.5" height="68" as="geometry" />
        </mxCell>
        <mxCell id="fwKIWZc1ydTvs1OeLj7H-91" value="Encaminhamentos&lt;br&gt;" style="ellipse;whiteSpace=wrap;html=1;fontSize=14;fillColor=#dae8fc;strokeColor=#6c8ebf;rounded=1;shadow=1;fontStyle=1;sketch=1;curveFitting=1;jiggle=2;" vertex="1" parent="1">
          <mxGeometry x="1449.5" y="687" width="145" height="108" as="geometry" />
        </mxCell>
        <mxCell id="fwKIWZc1ydTvs1OeLj7H-93" value="Anexo Documental&lt;br&gt;" style="ellipse;whiteSpace=wrap;html=1;fontSize=14;fillColor=#dae8fc;strokeColor=#6c8ebf;rounded=1;shadow=1;fontStyle=1;sketch=1;curveFitting=1;jiggle=2;" vertex="1" parent="1">
          <mxGeometry x="629" y="1067.5" width="101" height="91" as="geometry" />
        </mxCell>
        <mxCell id="fwKIWZc1ydTvs1OeLj7H-95" value="Descrição de Encerramento&lt;br&gt;" style="ellipse;whiteSpace=wrap;html=1;fontSize=14;fillColor=#dae8fc;strokeColor=#6c8ebf;rounded=1;shadow=1;fontStyle=1;sketch=1;curveFitting=1;jiggle=2;" vertex="1" parent="1">
          <mxGeometry x="645.5" y="897.5" width="129" height="91" as="geometry" />
        </mxCell>
        <mxCell id="fwKIWZc1ydTvs1OeLj7H-97" value="Gerar Relatório com Resumo total do Processo&lt;br&gt;" style="ellipse;whiteSpace=wrap;html=1;fontSize=14;fillColor=#dae8fc;strokeColor=#6c8ebf;rounded=1;shadow=1;fontStyle=1;sketch=1;curveFitting=1;jiggle=2;" vertex="1" parent="1">
          <mxGeometry x="787" y="962.5" width="150" height="138" as="geometry" />
        </mxCell>
        <mxCell id="fwKIWZc1ydTvs1OeLj7H-104" value="" style="shape=ext;double=1;whiteSpace=wrap;html=1;aspect=fixed;fillColor=#d5e8d4;strokeColor=#82b366;sketch=1;curveFitting=1;jiggle=2;movable=1;resizable=1;rotatable=1;deletable=1;editable=1;locked=0;connectable=1;" vertex="1" parent="1">
          <mxGeometry x="0.5" y="1240.5" width="597" height="597" as="geometry" />
        </mxCell>
        <mxCell id="fwKIWZc1ydTvs1OeLj7H-105" value="Conselheiro Tutelar&lt;br&gt;&amp;lt;UserType&amp;gt;" style="shape=umlActor;verticalLabelPosition=bottom;verticalAlign=top;html=1;outlineConnect=0;sketch=1;curveFitting=1;jiggle=2;fillColor=#e6d0de;strokeColor=#996185;gradientColor=#d5739d;movable=1;resizable=1;rotatable=1;deletable=1;editable=1;locked=0;connectable=1;" vertex="1" parent="1">
          <mxGeometry x="190.5" y="1264.5" width="30" height="60" as="geometry" />
        </mxCell>
        <mxCell id="fwKIWZc1ydTvs1OeLj7H-106" value="Receptor&lt;br&gt;da&lt;br&gt;Denúncia&lt;br&gt;&amp;lt;UserType&amp;gt;" style="shape=umlActor;verticalLabelPosition=bottom;verticalAlign=top;html=1;outlineConnect=0;sketch=1;curveFitting=1;jiggle=2;fillColor=#fad7ac;strokeColor=#b46504;movable=1;resizable=1;rotatable=1;deletable=1;editable=1;locked=0;connectable=1;" vertex="1" parent="1">
          <mxGeometry x="46.5" y="1264.5" width="30" height="60" as="geometry" />
        </mxCell>
        <mxCell id="fwKIWZc1ydTvs1OeLj7H-108" value="&lt;font color=&quot;#000000&quot;&gt;Denunciante&lt;br&gt;&amp;lt;Anônimo/Pessoa&amp;gt;&lt;/font&gt;" style="shape=umlActor;verticalLabelPosition=bottom;verticalAlign=top;html=1;outlineConnect=0;sketch=1;curveFitting=1;jiggle=2;fillColor=#008a00;strokeColor=#005700;fontColor=#ffffff;movable=1;resizable=1;rotatable=1;deletable=1;editable=1;locked=0;connectable=1;" vertex="1" parent="1">
          <mxGeometry x="355.5" y="1264.5" width="30" height="60" as="geometry" />
        </mxCell>
        <mxCell id="fwKIWZc1ydTvs1OeLj7H-112" value="Denunciado&lt;br&gt;&amp;lt;CadMuni/CadUnico&amp;gt;" style="shape=umlActor;verticalLabelPosition=bottom;verticalAlign=top;html=1;outlineConnect=0;sketch=1;curveFitting=1;jiggle=2;fillColor=#e3c800;fontColor=#000000;strokeColor=#B09500;movable=1;resizable=1;rotatable=1;deletable=1;editable=1;locked=0;connectable=1;" vertex="1" parent="1">
          <mxGeometry x="506.5" y="1264.5" width="30" height="60" as="geometry" />
        </mxCell>
        <mxCell id="fwKIWZc1ydTvs1OeLj7H-115" value="" style="endArrow=none;html=1;rounded=0;sketch=1;curveFitting=1;jiggle=2;strokeWidth=3;fillColor=#d5e8d4;strokeColor=#82b366;movable=1;resizable=1;rotatable=1;deletable=1;editable=1;locked=0;connectable=1;" edge="1" parent="1">
          <mxGeometry width="50" height="50" relative="1" as="geometry">
            <mxPoint x="124.5" y="1833" as="sourcePoint" />
            <mxPoint x="124.5" y="1245" as="targetPoint" />
          </mxGeometry>
        </mxCell>
        <mxCell id="fwKIWZc1ydTvs1OeLj7H-116" value="" style="endArrow=none;html=1;rounded=0;sketch=1;curveFitting=1;jiggle=2;strokeWidth=3;fillColor=#d5e8d4;strokeColor=#82b366;movable=1;resizable=1;rotatable=1;deletable=1;editable=1;locked=0;connectable=1;" edge="1" parent="1">
          <mxGeometry width="50" height="50" relative="1" as="geometry">
            <mxPoint x="293.5" y="1833" as="sourcePoint" />
            <mxPoint x="293.5" y="1245" as="targetPoint" />
          </mxGeometry>
        </mxCell>
        <mxCell id="fwKIWZc1ydTvs1OeLj7H-117" value="" style="endArrow=none;html=1;rounded=0;sketch=1;curveFitting=1;jiggle=2;strokeWidth=3;fillColor=#d5e8d4;strokeColor=#82b366;movable=1;resizable=1;rotatable=1;deletable=1;editable=1;locked=0;connectable=1;" edge="1" parent="1">
          <mxGeometry width="50" height="50" relative="1" as="geometry">
            <mxPoint x="439.5" y="1833" as="sourcePoint" />
            <mxPoint x="439.5" y="1245" as="targetPoint" />
          </mxGeometry>
        </mxCell>
        <mxCell id="fwKIWZc1ydTvs1OeLj7H-119" value="" style="endArrow=none;html=1;rounded=0;strokeWidth=3;fillColor=#d5e8d4;strokeColor=#82b366;sketch=1;curveFitting=1;jiggle=2;movable=1;resizable=1;rotatable=1;deletable=1;editable=1;locked=0;connectable=1;" edge="1" parent="1">
          <mxGeometry width="50" height="50" relative="1" as="geometry">
            <mxPoint x="0.5" y="1394.5" as="sourcePoint" />
            <mxPoint x="595.5" y="1392.5" as="targetPoint" />
          </mxGeometry>
        </mxCell>
        <mxCell id="fwKIWZc1ydTvs1OeLj7H-126" value="&lt;ul&gt;&lt;li&gt;Todas as Averiguações compartilharão a Documentação Básica de Identificação&amp;nbsp;&lt;/li&gt;&lt;/ul&gt;" style="shape=note;whiteSpace=wrap;html=1;backgroundOutline=1;darkOpacity=0.05;size=22;sketch=1;curveFitting=1;jiggle=2;fillColor=#f8cecc;strokeColor=#b85450;" vertex="1" parent="1">
          <mxGeometry x="1282" y="-533" width="423" height="171" as="geometry" />
        </mxCell>
        <mxCell id="fwKIWZc1ydTvs1OeLj7H-66" value="&lt;font style=&quot;font-size: 10px;&quot;&gt;Documentações&lt;br&gt;de Identificação&lt;br&gt;&lt;/font&gt;" style="ellipse;whiteSpace=wrap;html=1;fontSize=14;fillColor=#f8cecc;strokeColor=#b85450;rounded=1;shadow=1;fontStyle=1;rotation=0;sketch=1;curveFitting=1;jiggle=2;" vertex="1" parent="1">
          <mxGeometry x="840" y="443" width="87" height="93" as="geometry" />
        </mxCell>
      </root>
    </mxGraphModel>
  </diagram>
</mxfile>
